<svg width="63" height="63" viewBox="0 0 63 63" fill="none" xmlns="http://www.w3.org/2000/svg">
<g filter="url(#filter0_f_1709_56499)">
<rect x="11.1484" y="2.4668" width="50" height="50" rx="16" transform="rotate(10 11.1484 2.4668)" fill="url(#paint0_linear_1709_56499)"/>
<path d="M40.3844 36.6288C40.7173 34.7409 41.0594 32.8547 41.3738 30.9636C41.4312 30.638 41.5353 30.5777 41.8351 30.6539C42.191 30.7452 42.5624 30.7778 42.9239 30.8571C43.1354 30.9039 43.2292 30.8625 43.2605 30.631C43.3183 30.1956 43.3949 29.761 43.4897 29.3313C43.5392 29.1047 43.4683 29.0403 43.2539 29.0051C42.3015 28.8475 41.3528 28.6638 40.3992 28.513C40.1273 28.4702 40.0482 28.3844 40.1051 28.1055C40.2475 27.4108 40.3383 26.7045 40.4851 26.0097C40.8439 24.3081 39.6655 22.9791 38.1953 22.7406C34.8041 22.1899 31.42 21.5932 28.0428 20.9504C26.5861 20.6745 25.0213 21.5562 24.8042 23.224C24.7123 23.9267 24.5475 24.6209 24.447 25.3238C24.4032 25.631 24.2845 25.6758 24.0027 25.6209C23.0692 25.439 22.1291 25.2906 21.1938 25.1144C20.9672 25.0745 20.864 25.1004 20.8314 25.3542C20.7762 25.79 20.6937 26.2236 20.6022 26.6539C20.5593 26.8582 20.6227 26.93 20.8211 26.9581C21.2151 27.0146 21.6034 27.109 21.9974 27.1559C22.2516 27.1861 22.3591 27.2734 22.261 27.5303C22.2573 27.544 22.2548 27.5581 22.2536 27.5723C21.5855 31.3614 20.9195 35.1512 20.2558 38.9417C20.2061 39.2237 20.138 39.3155 19.8327 39.2513C19.0692 39.0916 18.2947 38.9801 17.5279 38.8345C16.1613 38.5823 15.1995 37.2707 15.4283 35.9C15.8256 33.5191 16.2373 31.1399 16.6909 28.769C16.8851 27.7555 17.5636 27.1017 18.5556 26.819C18.7925 26.7509 18.8583 26.6431 18.8954 26.4273C19.1361 25.0137 19.4111 23.6062 19.634 22.1895C20.2023 18.5696 23.441 15.6273 27.418 15.6131C27.8576 15.6128 28.2964 15.6511 28.7293 15.7275C32.2684 16.3418 35.8061 16.9656 39.3424 17.5989C43.1007 18.2702 45.8443 21.6003 45.8261 25.4227C45.8137 25.919 45.7603 26.4134 45.6667 26.9008C45.4312 28.2724 45.1896 29.6428 44.9417 31.0122C44.9054 31.2186 44.9086 31.3524 45.1148 31.503C46.0203 32.167 46.3737 33.072 46.179 34.1813C45.7795 36.4468 45.3851 38.7131 44.9806 40.9776C44.7908 42.0541 44.1423 42.7539 43.1098 43.0701C42.8635 43.147 42.7723 43.252 42.7451 43.4895C42.6174 44.5916 42.2997 45.6231 41.4883 46.4369C40.4039 47.5235 39.0976 47.9895 37.5814 47.7317C34.5022 47.2078 31.4295 46.647 28.3498 46.1161C28.0629 46.0655 27.9645 45.9902 28.0451 45.6903C28.134 45.3606 28.1934 45.0237 28.2226 44.6835C28.2498 44.3578 28.3756 44.3064 28.6841 44.3625C31.6739 44.9027 34.6667 45.4261 37.6611 45.9506C37.9522 46.0019 38.241 46.0667 38.5456 46.027C39.8139 45.8648 40.7054 45.0236 40.9434 43.7428C41.0841 42.9889 41.0841 42.9889 40.3591 42.8611C40.0235 42.8019 39.5591 42.8351 39.4011 42.6325C39.2139 42.3936 39.4505 41.9647 39.5095 41.6204C39.7931 39.9531 40.091 38.2926 40.3844 36.6288Z" fill="white"/>
<path d="M32.1894 27.1472C36.4685 27.9018 39.3703 32.054 38.616 36.3314C37.8617 40.6088 33.6892 43.5086 29.4207 42.7481C25.1524 41.9875 22.2267 37.807 23.0281 33.5451C23.8439 29.1929 27.8852 26.4462 32.1894 27.1472ZM30.3879 37.555C29.5145 37.401 29.5147 37.4009 29.3593 38.282C29.2115 39.1207 29.2113 39.1205 30.0501 39.2685C30.9033 39.4189 30.9031 39.419 31.0554 38.5552C31.2059 37.702 31.2063 37.7019 30.3879 37.555ZM31.6728 30.6339C30.3929 30.3218 29.0016 31.1505 28.5799 32.4724C28.5208 32.6557 28.5325 32.7533 28.758 32.7844C29.1647 32.8423 29.5694 32.9215 29.9736 32.9988C30.1527 33.033 30.2527 33.035 30.3521 32.8146C30.4009 32.7121 30.4701 32.6201 30.5554 32.5451C30.6406 32.47 30.7407 32.413 30.8486 32.3776C30.9565 32.3423 31.0705 32.3295 31.1836 32.3395C31.2969 32.3496 31.4076 32.3824 31.5076 32.4363C31.7908 32.5866 31.9747 32.816 31.9892 33.136C32.006 33.5161 31.8616 33.826 31.5038 34.0103C30.7104 34.4096 30.1009 35.0984 29.8001 35.9341C29.5866 36.5021 29.6076 36.5329 30.1995 36.6105L30.4928 36.6622L30.4916 36.6352C30.7005 36.672 30.914 36.6958 31.1206 36.7461C31.2904 36.7872 31.3735 36.7396 31.43 36.5716C31.6033 36.0597 31.9785 35.747 32.4421 35.4827C32.7722 35.3004 33.0575 35.0455 33.2764 34.7384C33.4951 34.4313 33.6415 34.0789 33.7061 33.7075C33.9801 32.3102 33.0902 30.9799 31.6728 30.6339Z" fill="white"/>
</g>
<defs>
<filter id="filter0_f_1709_56499" x="-2.53516" y="-2.5332" width="67.9258" height="67.9219" filterUnits="userSpaceOnUse" color-interpolation-filters="sRGB">
<feFlood flood-opacity="0" result="BackgroundImageFix"/>
<feBlend mode="normal" in="SourceGraphic" in2="BackgroundImageFix" result="shape"/>
<feGaussianBlur stdDeviation="2.5" result="effect1_foregroundBlur_1709_56499"/>
</filter>
<linearGradient id="paint0_linear_1709_56499" x1="61.1484" y1="52.4668" x2="-15.7266" y2="-21.2832" gradientUnits="userSpaceOnUse">
<stop stop-color="#CB00CB"/>
<stop offset="0.5" stop-color="#FF5CFF"/>
<stop offset="1" stop-color="#CB00CB"/>
</linearGradient>
</defs>
</svg>
