<svg width="90" height="109" viewBox="0 0 90 109" fill="none" xmlns="http://www.w3.org/2000/svg">
<g filter="url(#filter0_f_1709_56485)">
<rect x="-1.26172" width="100" height="100" rx="16" transform="rotate(25 -1.26172 0)" fill="url(#paint0_linear_1709_56485)"/>
<path d="M42.3913 86.0202C44.5517 81.3872 46.7348 76.7648 48.8499 72.1106C49.2225 71.3117 49.5322 71.228 50.2517 71.6312C51.1054 72.112 52.0397 72.4524 52.9161 72.9062C53.4285 73.1727 53.6988 73.1308 53.9392 72.556C54.3884 71.4745 54.8858 70.4078 55.4265 69.3665C55.7104 68.8169 55.5724 68.6022 55.0444 68.3635C52.6999 67.3003 50.3831 66.1723 48.0309 65.1256C47.3601 64.8279 47.2153 64.5523 47.5545 63.8732C48.4008 62.1821 49.1222 60.4253 49.9797 58.7369C52.0785 54.6016 49.9604 50.365 46.338 48.736C37.9831 44.9771 29.678 41.1044 21.4226 37.1178C17.8609 35.4018 13.2219 36.5928 11.5117 40.7388C10.7899 42.4855 9.88633 44.1598 9.14209 45.901C8.81729 46.662 8.48075 46.6956 7.79259 46.3597C5.51382 45.247 3.19458 44.2156 0.907029 43.1163C0.351067 42.8571 0.0673595 42.8526 -0.191867 43.4838C-0.634884 44.5683 -1.14667 45.6282 -1.67919 46.6734C-1.93091 47.1702 -1.81692 47.3988 -1.32534 47.608C-0.349334 48.0255 0.585527 48.5366 1.56798 48.9296C2.20204 49.1826 2.41858 49.4817 1.98859 50.0758C1.96953 50.1086 1.95346 50.1431 1.94059 50.1788C-2.3956 59.4778 -6.72661 68.78 -11.0524 78.0854C-11.3751 78.7773 -11.6138 78.9668 -12.356 78.5907C-14.2122 77.6524 -16.1303 76.8306 -18.0049 75.9264C-21.3509 74.3336 -22.923 70.2915 -21.3878 66.9186C-18.7211 61.0602 -16.0185 55.216 -13.2139 49.4219C-12.014 46.9456 -9.81516 45.7298 -7.06485 45.6862C-6.40753 45.6743 -6.16383 45.442 -5.91912 44.9119C-4.32373 41.4368 -2.64391 38.001 -1.09176 34.5058C2.87024 25.5738 13.2434 20.2305 23.4971 22.9387C24.6296 23.2414 25.7333 23.6428 26.7957 24.1384C35.4878 28.1632 44.1697 32.2117 52.8415 36.2838C62.0588 40.607 66.8274 51.0782 64.1422 60.9114C63.7677 62.181 63.2892 63.4176 62.7115 64.6087C61.1583 67.9789 59.59 71.3422 58.0066 74.6983C57.7704 75.2049 57.6864 75.5518 58.1135 76.0819C59.9876 78.4173 60.2734 80.9922 59.0061 83.7153C56.4136 89.2749 53.8335 94.8403 51.2287 100.394C49.9967 103.036 47.8433 104.391 44.9655 104.493C44.2782 104.521 43.9708 104.728 43.7369 105.321C42.6472 108.072 41.117 110.51 38.4654 112.046C34.9222 114.096 31.2356 114.395 27.5083 112.685C19.9385 109.21 12.4109 105.645 4.8446 102.151C4.14038 101.823 3.93909 101.561 4.35352 100.844C4.81018 100.057 5.19578 99.2298 5.50574 98.3735C5.80046 97.5534 6.16006 97.5079 6.91589 97.8654C14.2443 101.32 21.5919 104.734 28.9427 108.152C29.6572 108.485 30.3564 108.851 31.1684 108.959C34.5474 109.417 37.4242 107.865 38.9211 104.73C39.8038 102.886 39.8038 102.886 38.0247 102.056C37.2011 101.672 35.9821 101.437 35.7148 100.806C35.3976 100.061 36.303 99.1198 36.6925 98.2736C38.5738 94.1747 40.4873 90.1035 42.3913 86.0202Z" fill="white"/>
<path d="M27.831 55.9432C38.3323 60.8401 42.9398 73.5371 38.0451 84.0343C33.1501 94.5317 20.4032 99.122 9.93298 94.2171C-0.537028 89.3121 -5.18803 76.5243 -0.18132 66.0992C4.92407 55.4517 17.2281 51.1669 27.831 55.9432ZM16.0081 81.5078C13.8645 80.5083 13.8644 80.5084 12.8562 82.6704C11.8963 84.7291 11.8961 84.729 13.9549 85.6891C16.0489 86.6655 16.049 86.6656 17.0378 84.5449C18.0143 82.4509 18.0145 82.451 16.0081 81.5078ZM24.0935 64.5661C21.0124 62.8787 16.857 64.0538 14.8583 67.1676C14.5794 67.5991 14.5418 67.8575 15.1011 68.0933C16.109 68.5231 17.0969 69.0064 18.0847 69.4845C18.5225 69.6962 18.7779 69.773 19.186 69.274C19.3825 69.0431 19.6236 68.8537 19.8952 68.719C20.1668 68.5843 20.4632 68.5069 20.7658 68.4903C21.0686 68.4737 21.3716 68.5191 21.6564 68.6233C21.9409 68.7273 22.2016 68.8877 22.422 69.0956C23.0478 69.6782 23.3656 70.3956 23.182 71.23C22.9631 72.2208 22.3764 72.9196 21.3278 73.1475C19.0082 73.6282 16.9614 74.9814 15.6099 76.9269C14.668 78.2425 14.7024 78.3357 16.1735 78.944L16.8913 79.2787L16.9095 79.2096C17.4221 79.4486 17.9541 79.6566 18.4513 79.9285C18.8609 80.1521 19.1069 80.0867 19.3685 79.6925C20.1682 78.4936 21.3513 77.9466 22.7279 77.5857C23.7039 77.3439 24.6135 76.886 25.3891 76.246C26.1646 75.6061 26.7867 74.8004 27.2094 73.8882C28.8798 70.4781 27.5059 66.4356 24.0935 64.5661Z" fill="white"/>
</g>
<defs>
<filter id="filter0_f_1709_56485" x="-48.5234" y="-5" width="142.891" height="142.893" filterUnits="userSpaceOnUse" color-interpolation-filters="sRGB">
<feFlood flood-opacity="0" result="BackgroundImageFix"/>
<feBlend mode="normal" in="SourceGraphic" in2="BackgroundImageFix" result="shape"/>
<feGaussianBlur stdDeviation="2.5" result="effect1_foregroundBlur_1709_56485"/>
</filter>
<linearGradient id="paint0_linear_1709_56485" x1="98.7383" y1="100" x2="-55.0117" y2="-47.5" gradientUnits="userSpaceOnUse">
<stop stop-color="#A68300"/>
<stop offset="0.5" stop-color="#E7B800"/>
<stop offset="1" stop-color="#A68300"/>
</linearGradient>
</defs>
</svg>
