<svg width="65" height="65" viewBox="0 0 65 65" fill="none" xmlns="http://www.w3.org/2000/svg">
<g filter="url(#filter0_f_1709_56506)">
<rect x="1.40625" y="14.3496" width="50" height="50" rx="16" transform="rotate(-15 1.40625 14.3496)" fill="url(#paint0_linear_1709_56506)"/>
<path d="M42.3379 32.9557C41.8417 31.104 41.3546 29.25 40.8404 27.4031C40.7548 27.0838 40.8236 26.9851 41.1275 26.9275C41.4887 26.8599 41.8391 26.7324 42.2002 26.6515C42.4117 26.6046 42.4792 26.5274 42.4097 26.3043C42.2781 25.8854 42.1638 25.4591 42.0682 25.0296C42.0172 24.8033 41.9258 24.7749 41.7166 24.8336C40.7869 25.0933 39.8494 25.3277 38.9214 25.594C38.6569 25.6702 38.5489 25.6259 38.4827 25.349C38.3181 24.6593 38.1019 23.9807 37.9413 23.289C37.5474 21.5951 35.9177 20.8887 34.4845 21.2939C31.1783 22.228 27.859 23.1174 24.5266 23.9621C23.0898 24.3277 22.0442 25.788 22.5523 27.3913C22.766 28.067 22.91 28.7658 23.116 29.4454C23.2061 29.7423 23.1175 29.8331 22.8389 29.9024C21.916 30.1321 21.0012 30.3948 20.0791 30.6305C19.8569 30.69 19.7743 30.7571 19.852 31.0009C19.9861 31.4192 20.0946 31.8471 20.1935 32.2757C20.241 32.4791 20.3288 32.5173 20.5205 32.4589C20.9015 32.3435 21.2932 32.265 21.6702 32.1411C21.9133 32.0609 22.0476 32.0946 22.0673 32.369C22.0697 32.383 22.0734 32.3968 22.0783 32.4101C23.0742 36.1266 24.0723 39.8428 25.0726 43.5587C25.1467 43.8352 25.1238 43.9472 24.82 44.018C24.0606 44.1959 23.3115 44.4222 22.555 44.6143C21.2099 44.9633 19.7839 44.1811 19.4119 42.8421C18.7658 40.5164 18.1335 38.1861 17.5425 35.8456C17.2903 34.845 17.6289 33.9658 18.4085 33.2903C18.5944 33.1284 18.6084 33.0029 18.5509 32.7917C18.1716 31.4088 17.826 30.0169 17.4293 28.6387C16.4145 25.1178 18.1064 21.0825 21.7047 19.3889C22.103 19.2028 22.5168 19.0521 22.9415 18.9384C26.4086 17.9994 29.8785 17.0696 33.3511 16.1491C37.041 15.1693 40.9349 17.0278 42.5338 20.4998C42.7323 20.9548 42.8929 21.4254 43.014 21.9068C43.3803 23.2494 43.7404 24.5935 44.0946 25.9393C44.1488 26.1418 44.2083 26.2617 44.4588 26.311C45.5601 26.5301 46.2629 27.2009 46.5552 28.2887C47.1506 30.5107 47.7509 32.7314 48.3413 34.9547C48.6243 36.0105 48.3322 36.9188 47.5301 37.6418C47.3394 37.8155 47.3011 37.9492 47.3769 38.1759C47.7269 39.2288 47.8749 40.2979 47.4834 41.3783C46.9598 42.8214 45.9729 43.7959 44.4898 44.203C41.4777 45.0295 38.4559 45.8198 35.4403 46.6401C35.1589 46.7156 35.0379 46.6889 34.9842 46.3831C34.9255 46.0467 34.837 45.7162 34.7196 45.3955C34.6066 45.0889 34.6989 44.9891 35.0022 44.9096C37.9402 44.1356 40.8738 43.3452 43.8092 42.5551C44.0948 42.4786 44.3839 42.4152 44.6432 42.2505C45.7242 41.5674 46.1766 40.4283 45.851 39.1669C45.6599 38.4243 45.6599 38.4243 44.9489 38.6148C44.6197 38.703 44.2128 38.9293 43.984 38.8125C43.7134 38.6751 43.7465 38.1863 43.6544 37.8494C43.2069 36.2184 42.7752 34.5876 42.3379 32.9557Z" fill="white"/>
<path d="M30.9072 27.8255C35.1043 26.701 39.489 29.2378 40.6131 33.4332C41.7372 37.6286 39.1811 42.0201 34.9911 43.1349C30.8014 44.2494 26.383 41.697 25.3081 37.4957C24.2082 33.2065 26.71 29.0092 30.9072 27.8255ZM33.673 38.0195C32.8163 38.249 32.8165 38.2489 33.0481 39.113C33.2685 39.9357 33.2682 39.9356 34.091 39.7152C34.9278 39.491 34.9277 39.4911 34.7007 38.6439C34.4765 37.807 34.4768 37.8068 33.673 38.0195ZM31.9125 31.2039C30.6207 31.4619 29.71 32.8009 29.8865 34.1772C29.9104 34.3683 29.9622 34.4518 30.1797 34.3848C30.5728 34.2653 30.973 34.166 31.372 34.0653C31.5488 34.0206 31.6403 33.9802 31.6372 33.7384C31.6381 33.6249 31.662 33.5122 31.7075 33.4082C31.7531 33.3041 31.8197 33.2102 31.9026 33.1325C31.9854 33.0549 32.0833 32.9951 32.19 32.9564C32.2969 32.9177 32.4111 32.9006 32.5246 32.9072C32.8447 32.9237 33.1083 33.0539 33.2567 33.3378C33.4326 33.6752 33.4327 34.0171 33.1863 34.3354C32.6359 35.0325 32.3747 35.9144 32.4553 36.7989C32.5018 37.4039 32.5339 37.423 33.1031 37.2431L33.3908 37.166L33.3783 37.1421C33.5832 37.0871 33.7867 37.0185 33.9952 36.9768C34.1665 36.9422 34.2217 36.8639 34.2019 36.6878C34.1426 36.1507 34.3505 35.7087 34.6589 35.2733C34.8811 34.9685 35.032 34.6169 35.1005 34.2461C35.169 33.8754 35.1527 33.494 35.0543 33.1302C34.7121 31.748 33.3434 30.9184 31.9125 31.2039Z" fill="white"/>
</g>
<defs>
<filter id="filter0_f_1709_56506" x="-3.59375" y="-3.5918" width="71.2383" height="71.2383" filterUnits="userSpaceOnUse" color-interpolation-filters="sRGB">
<feFlood flood-opacity="0" result="BackgroundImageFix"/>
<feBlend mode="normal" in="SourceGraphic" in2="BackgroundImageFix" result="shape"/>
<feGaussianBlur stdDeviation="2.5" result="effect1_foregroundBlur_1709_56506"/>
</filter>
<linearGradient id="paint0_linear_1709_56506" x1="51.4062" y1="64.3496" x2="-25.4688" y2="-9.40039" gradientUnits="userSpaceOnUse">
<stop stop-color="#E90707"/>
<stop offset="0.5" stop-color="#FE7373"/>
<stop offset="1" stop-color="#E90707"/>
</linearGradient>
</defs>
</svg>
