<svg width="89" height="110" viewBox="0 0 89 110" fill="none" xmlns="http://www.w3.org/2000/svg">
<g filter="url(#filter0_f_1709_56513)">
<rect y="42.2618" width="100" height="100" rx="16" transform="rotate(-25 0 42.2618)" fill="url(#paint0_linear_1709_56513)"/>
<path d="M93.9635 64.1093C91.8031 59.4763 89.6654 54.8328 87.4597 50.2209C87.0871 49.4219 87.2221 49.1308 87.9934 48.8389C88.9106 48.4939 89.7718 47.997 90.6828 47.6174C91.2164 47.3962 91.3579 47.1622 91.0722 46.6085C90.5324 45.5692 90.035 44.5026 89.5849 43.419C89.3464 42.8483 89.0931 42.816 88.5709 43.067C86.2495 44.1796 83.8962 45.2293 81.5824 46.3584C80.9231 46.6809 80.6189 46.6147 80.3168 45.9183C79.5653 44.183 78.6832 42.5011 77.941 40.7589C76.1223 36.4931 71.5153 35.3924 67.939 37.1202C59.6892 41.1042 51.3841 44.977 43.0237 48.7384C39.4197 50.3639 37.3502 54.6831 39.4269 58.6582C40.301 60.3338 41.0028 62.1023 41.8582 63.7916C42.2324 64.5296 42.0419 64.809 41.3422 65.1202C39.025 66.1506 36.7442 67.2643 34.4316 68.3101C33.8757 68.5693 33.6899 68.7838 34.0068 69.3881C34.5528 70.4245 35.0357 71.4979 35.4941 72.5777C35.7129 73.0898 35.9613 73.1495 36.4375 72.9074C37.3847 72.4281 38.3772 72.0405 39.3097 71.5404C39.9111 71.2174 40.2794 71.2437 40.4582 71.955C40.471 71.9907 40.4871 72.0252 40.5062 72.058C44.8423 81.357 49.1843 90.6541 53.5321 99.9493C53.8548 100.641 53.8464 100.946 53.0813 101.273C51.1693 102.091 49.3069 103.033 47.4092 103.887C44.0383 105.427 39.9314 104.033 38.3344 100.689C35.5607 94.8802 32.821 89.0533 30.1852 83.1805C29.0595 80.6696 29.5416 78.2037 31.276 76.0688C31.6895 75.5576 31.6682 75.2216 31.4193 74.6934C29.7828 71.2375 28.2306 67.7422 26.5508 64.3065C22.2552 55.53 24.8298 44.1491 33.4953 38.0352C34.4551 37.3622 35.4721 36.7747 36.5347 36.2795C45.205 32.208 53.8869 28.1596 62.5804 24.1341C71.8169 19.8521 82.9035 22.9299 88.7103 31.3075C89.4421 32.4106 90.0818 33.572 90.6229 34.7801C92.2063 38.1363 93.7746 41.4995 95.3278 44.8698C95.564 45.3763 95.7757 45.6637 96.4563 45.6772C99.45 45.7427 101.606 47.1789 102.878 49.9001C105.47 55.4597 108.075 61.0136 110.655 66.579C111.887 69.2208 111.541 71.7413 109.769 74.0114C109.349 74.5559 109.31 74.9248 109.614 75.485C111.021 78.088 111.904 80.827 111.377 83.8457C110.67 87.8779 108.529 90.8941 104.823 92.6499C97.2954 96.2152 89.7256 99.69 82.1862 103.241C81.482 103.569 81.152 103.555 80.8693 102.777C80.5594 101.921 80.1738 101.094 79.7171 100.306C79.2783 99.5529 79.4746 99.2483 80.2343 98.899C87.5915 95.5059 94.9295 92.0716 102.273 88.6374C102.987 88.3043 103.717 88.004 104.322 87.4513C106.844 85.157 107.505 81.956 106.066 78.7942C105.22 76.9323 105.22 76.9323 103.441 77.7619C102.617 78.146 101.654 78.9288 100.998 78.7279C100.224 78.4923 100.085 77.1935 99.6871 76.3512C97.7564 72.2754 95.8676 68.1926 93.9635 64.1093Z" fill="white"/>
<path d="M61.5654 55.9319C72.0668 51.0351 84.7549 55.6669 89.6499 66.1641C94.5449 76.6615 89.8677 89.3768 79.3802 94.2446C68.8928 99.1122 56.1072 94.4552 51.3393 83.9188C46.4646 73.1638 51.0912 60.9841 61.5654 55.9319ZM73.5512 81.4206C71.4076 82.4202 71.4076 82.4204 72.4158 84.5824C73.3758 86.6412 73.3755 86.6412 75.4344 85.6811C77.5285 84.7046 77.5286 84.7048 76.5396 82.584C75.5632 80.49 75.5633 80.4899 73.5512 81.4206ZM65.7702 64.3369C62.4971 65.6126 60.7264 69.5519 61.8272 73.0846C61.9785 73.5753 62.1525 73.7704 62.6925 73.4936C63.6695 72.9979 64.6748 72.5516 65.676 72.1023C66.1196 71.903 66.3422 71.7559 66.2223 71.1224C66.1717 70.8235 66.1829 70.5175 66.2543 70.2229C66.3257 69.9283 66.4556 69.651 66.6374 69.4085C66.8193 69.1659 67.0489 68.9629 67.3117 68.8117C67.5745 68.6605 67.8654 68.5637 68.1666 68.5284C69.0149 68.4236 69.7681 68.6419 70.2892 69.3186C70.9076 70.1233 71.0663 71.0225 70.5667 71.9725C69.444 74.0583 69.1645 76.4953 69.786 78.7811C70.1884 80.3483 70.2823 80.3827 71.6939 79.6468L72.4126 79.3116L72.3705 79.2537C72.883 79.0147 73.3844 78.7408 73.9123 78.5347C74.3469 78.3647 74.4554 78.1331 74.3214 77.6791C73.9171 76.296 74.2581 75.0391 74.8665 73.7528C75.3087 72.8497 75.5424 71.8586 75.5508 70.853C75.5591 69.8474 75.3415 68.8525 74.9143 67.9421C73.3757 64.4706 69.3959 62.9245 65.7702 64.3369Z" fill="white"/>
</g>
<defs>
<filter id="filter0_f_1709_56513" x="-5" y="-4.99989" width="142.895" height="142.893" filterUnits="userSpaceOnUse" color-interpolation-filters="sRGB">
<feFlood flood-opacity="0" result="BackgroundImageFix"/>
<feBlend mode="normal" in="SourceGraphic" in2="BackgroundImageFix" result="shape"/>
<feGaussianBlur stdDeviation="2.5" result="effect1_foregroundBlur_1709_56513"/>
</filter>
<linearGradient id="paint0_linear_1709_56513" x1="100" y1="142.262" x2="-53.75" y2="-5.23818" gradientUnits="userSpaceOnUse">
<stop stop-color="#033400"/>
<stop offset="0.5" stop-color="#0E7300"/>
<stop offset="1" stop-color="#033400"/>
</linearGradient>
</defs>
</svg>
