<svg width="65" height="65" viewBox="0 0 65 65" fill="none" xmlns="http://www.w3.org/2000/svg">
<g filter="url(#filter0_f_1709_56520)">
<rect x="14.3477" y="1.4082" width="50" height="50" rx="16" transform="rotate(15 14.3477 1.4082)" fill="url(#paint0_linear_1709_56520)"/>
<path d="M40.4925 37.9893C40.9886 36.1377 41.4939 34.2884 41.9719 32.4319C42.0575 32.1126 42.1664 32.0615 42.4584 32.1636C42.805 32.2855 43.1722 32.3504 43.5253 32.4609C43.732 32.526 43.829 32.4929 43.8804 32.265C43.9759 31.8363 44.0901 31.41 44.222 30.9902C44.291 30.7688 44.2261 30.6985 44.0155 30.6447C43.0805 30.4047 42.1514 30.139 41.2146 29.9056C40.9475 29.8394 40.876 29.747 40.9571 29.4741C41.1595 28.7945 41.3115 28.0987 41.5183 27.4194C42.0241 25.7555 40.966 24.3289 39.5221 23.9632C36.1919 23.119 32.8726 22.2296 29.5643 21.295C28.1372 20.8932 26.5015 21.6351 26.1399 23.2776C25.9871 23.9696 25.7624 24.6468 25.601 25.3383C25.5306 25.6405 25.4085 25.6748 25.1325 25.5956C24.2184 25.333 23.2948 25.1032 22.3784 24.8462C22.1562 24.7866 22.0511 24.8035 21.9965 25.0534C21.9035 25.4828 21.7835 25.9075 21.6549 26.3282C21.5943 26.5281 21.6513 26.6051 21.8465 26.6503C22.2341 26.7409 22.6126 26.8688 23.001 26.95C23.2517 27.0021 23.3511 27.0985 23.231 27.3459C23.2261 27.3593 23.2224 27.373 23.22 27.387C22.2242 31.1035 21.2304 34.8209 20.2389 38.5391C20.1648 38.8157 20.0889 38.9012 19.7904 38.8106C19.0437 38.585 18.2819 38.4064 17.5307 38.1945C16.1913 37.8242 15.3475 36.4338 15.6948 35.0882C16.2981 32.751 16.9157 30.4168 17.5741 28.0944C17.856 27.1017 18.5889 26.5095 19.6017 26.3143C19.8437 26.2671 19.9186 26.1655 19.9744 25.9538C20.3373 24.5665 20.7339 23.1883 21.0795 21.7964C21.9611 18.2398 25.444 15.591 29.407 15.9235C29.845 15.9615 30.2788 16.0379 30.7033 16.1518C34.1755 17.0721 37.6454 18.0019 41.113 18.941C44.7985 19.9374 47.2414 23.4939 46.8901 27.3002C46.8345 27.7934 46.7383 28.2813 46.6025 28.7588C46.2484 30.1045 45.8882 31.4487 45.522 32.7913C45.4677 32.9937 45.4593 33.1273 45.6516 33.2953C46.4958 34.0357 46.769 34.968 46.4783 36.0562C45.8829 38.2782 45.2925 40.5015 44.6921 42.7222C44.4092 43.7781 43.7022 44.4186 42.6461 44.6437C42.394 44.6988 42.294 44.7954 42.2463 45.0296C42.023 46.1165 41.6166 47.1163 40.7374 47.8563C39.5624 48.8442 38.2204 49.1947 36.7325 48.8057C33.7107 48.0154 30.6985 47.1889 27.6768 46.3916C27.3954 46.3162 27.304 46.2326 27.4103 45.9409C27.5277 45.6202 27.6162 45.2897 27.675 44.9534C27.7304 44.6313 27.8602 44.5911 28.1626 44.6739C31.094 45.4726 34.0298 46.2548 36.967 47.0383C37.2526 47.1148 37.5346 47.2045 37.8416 47.1915C39.1192 47.1404 40.0806 46.3801 40.4293 45.1249C40.6352 44.3862 40.6352 44.3862 39.9241 44.1957C39.5949 44.1075 39.1294 44.1001 38.9896 43.8845C38.824 43.6302 39.0971 43.2235 39.1858 42.8856C39.6137 41.2494 40.0552 39.6213 40.4925 37.9893Z" fill="white"/>
<path d="M33.1572 27.8308C37.3542 28.9554 39.8831 33.3447 38.7589 37.5401C37.6347 41.7356 33.2253 44.2606 29.0393 43.131C24.8536 42.0013 22.3033 37.5817 23.4731 33.4059C24.6652 29.1413 28.9305 26.7573 33.1572 27.8308ZM30.4555 38.0419C29.5988 37.8124 29.599 37.8124 29.3675 38.6765C29.147 39.4991 29.1469 39.499 29.9696 39.7194C30.8064 39.9437 30.8063 39.9438 31.0333 39.0966C31.2575 38.2596 31.2579 38.2596 30.4555 38.0419ZM32.3386 31.2592C31.0909 30.8367 29.6327 31.541 29.0974 32.8211C29.0225 32.9986 29.0257 33.0968 29.2475 33.1475C29.6476 33.2406 30.0439 33.3547 30.4398 33.467C30.6153 33.5166 30.7147 33.5274 30.833 33.3165C30.8905 33.2186 30.9675 33.133 31.0589 33.0657C31.1504 32.9983 31.2551 32.9503 31.3657 32.9244C31.4762 32.8986 31.5909 32.8958 31.7027 32.9157C31.8146 32.9356 31.9221 32.9779 32.0171 33.0403C32.286 33.2147 32.4492 33.4593 32.4358 33.7793C32.4194 34.1595 32.2485 34.4556 31.8761 34.608C31.0508 34.9366 30.3836 35.5697 30.0112 36.376C29.749 36.9232 29.7672 36.9557 30.3501 37.0846L30.6378 37.1617L30.6389 37.1347C30.8439 37.1896 31.0545 37.2319 31.2558 37.3C31.4215 37.3557 31.5084 37.3155 31.5793 37.1531C31.7966 36.6583 32.1976 36.3795 32.6824 36.1566C33.0272 36.0037 33.3336 35.7747 33.5784 35.4878C33.823 35.201 33.9997 34.8626 34.0963 34.4983C34.4911 33.1302 33.7206 31.7274 32.3386 31.2592Z" fill="white"/>
</g>
<defs>
<filter id="filter0_f_1709_56520" x="-3.59375" y="-3.5918" width="71.2383" height="71.2363" filterUnits="userSpaceOnUse" color-interpolation-filters="sRGB">
<feFlood flood-opacity="0" result="BackgroundImageFix"/>
<feBlend mode="normal" in="SourceGraphic" in2="BackgroundImageFix" result="shape"/>
<feGaussianBlur stdDeviation="2.5" result="effect1_foregroundBlur_1709_56520"/>
</filter>
<linearGradient id="paint0_linear_1709_56520" x1="64.3477" y1="51.4082" x2="-12.5273" y2="-22.3418" gradientUnits="userSpaceOnUse">
<stop stop-color="#159400"/>
<stop offset="0.5" stop-color="#22D100"/>
<stop offset="1" stop-color="#159400"/>
</linearGradient>
</defs>
</svg>
